# file generated by UVMapper
# NumVerts/NumTVerts/NumVNormals/NumFacets   16/32/46/14
# NumGroups/NumMaterials/NumRegions   1/1/0
# x/y/color/ppu   256/106/0/50.00000000

v -7.50000000  0.00000000 -2.50000000
v -7.50000000  0.00000000  2.50000000
v -7.50000000  6.59999990 -2.50000000
v -7.50000000  6.59999990  2.50000000
v  7.50000000  0.00000000 -2.50000000
v  7.50000000  0.00000000  2.50000000
v  7.50000000  6.59999990 -2.50000000
v  7.50000000  6.59999990  2.50000000
v -6.50990009  0.43564001  2.50000000
v  6.50990009  0.43564001  2.50000000
v -6.50990009  6.16436005  2.50000000
v  6.50990009  6.16436005  2.50000000
v -2.59030008  2.16030002  1.70000005
v -2.59030008  4.43970013  1.70000005
v  2.59030008  4.43970013  1.70000005
v  2.59030008  2.16030002  1.70000005

vt  0.98000002  0.67891568
vt  0.64250004  0.67891568
vt  0.64250004  0.32108435
vt  0.98000002  0.32108435
vt  0.13249999  0.32108435
vt  0.13249999  0.67891568
vt  0.02000000  0.67891568
vt  0.02000000  0.32108435
vt  0.62250006  0.67891568
vt  0.51000005  0.67891568
vt  0.51000005  0.32108435
vt  0.62250006  0.32108435
vt  0.15250000  0.70391572
vt  0.48999998  0.70391572
vt  0.48999998  0.97500002
vt  0.15250000  0.97500002
vt  0.48999998  0.02500000
vt  0.48999998  0.29608434
vt  0.15250000  0.29608434
vt  0.15250000  0.02500000
vt  0.17477725  0.65529662
vt  0.15250000  0.67891568
vt  0.15250000  0.32108435
vt  0.48999998  0.32108435
vt  0.48999998  0.67891568
vt  0.37953174  0.43820906
vt  0.26296824  0.56179100
vt  0.46772274  0.34470338
vt  0.26296824  0.43820906
vt  0.17477725  0.34470338
vt  0.37953174  0.56179100
vt  0.46772274  0.65529662

vn  0.00000000  0.00000000 -1.00000000
vn -1.00000000  0.00000000  0.00000000
vn  1.00000000  0.00000000  0.00000000
vn  0.00000000  1.00000000  0.00000000
vn  0.00000000 -1.00000000  0.00000000
vn  0.00000000  0.00000000  1.00000000
vn  0.00000000  0.00000000  1.00000000
vn  0.00000000  0.00000000  1.00000000
vn  0.00000000  0.00000000  1.00000000
vn  0.00000000  0.00000000  1.00000000
vn  0.00000000  0.42078999  0.90715998
vn  0.19998001  0.00000000  0.97979999
vn  0.00000000 -0.42078999  0.90715998
vn -0.19998001  0.00000000  0.97979999
vn  0.00000000  0.00000000 -1.00000000
vn  0.00000000 -1.00000000  0.00000000
vn -1.00000000  0.00000000  0.00000000
vn -1.00000000  0.00000000  0.00000000
vn  0.00000000  0.00000000  1.00000000
vn  0.00000000 -1.00000000  0.00000000
vn  0.00000000  0.00000000 -1.00000000
vn  0.00000000  1.00000000  0.00000000
vn -1.00000000  0.00000000  0.00000000
vn -1.00000000  0.00000000  0.00000000
vn  0.00000000  0.00000000  1.00000000
vn  0.00000000  1.00000000  0.00000000
vn  0.00000000  0.00000000 -1.00000000
vn  0.00000000 -1.00000000  0.00000000
vn  1.00000000  0.00000000  0.00000000
vn  1.00000000  0.00000000  0.00000000
vn  0.00000000  0.00000000  1.00000000
vn  0.00000000 -1.00000000  0.00000000
vn  0.00000000  0.00000000 -1.00000000
vn  0.00000000  1.00000000  0.00000000
vn  1.00000000  0.00000000  0.00000000
vn  1.00000000  0.00000000  0.00000000
vn  0.00000000  0.00000000  1.00000000
vn  0.00000000  1.00000000  0.00000000
vn  0.05108000  0.10749000  0.99289000
vn -0.05108000  0.10749000  0.99289000
vn  0.05108000 -0.10749000  0.99289000
vn -0.05108000 -0.10749000  0.99289000
vn  0.06839000  0.14390001  0.98723000
vn  0.06839000 -0.14390001  0.98723000
vn -0.06839000 -0.14390001  0.98723000
vn -0.06839000  0.14390001  0.98723000

g mesh01
usemtl ___default___
f 3/1/21 7/2/33 5/3/27 1/4/15
f 2/5/18 4/6/24 3/7/23 1/8/17
f 7/9/35 8/10/36 6/11/30 5/12/29
f 4/13/26 8/14/38 7/15/34 3/16/22
f 5/17/28 6/18/32 2/19/20 1/20/16
f 10/28/40 9/30/39 2/23/19 6/24/31
f 9/30/39 11/21/41 4/22/25 2/23/19
f 11/21/41 12/32/42 8/25/37 4/22/25
f 12/32/42 10/28/40 6/24/31 8/25/37
f 16/26/46 15/31/45 14/27/44 13/29/43
f 10/28/40 16/26/46 13/29/43 9/30/39
f 13/29/43 14/27/44 11/21/41 9/30/39
f 14/27/44 15/31/45 12/32/42 11/21/41
f 15/31/45 16/26/46 10/28/40 12/32/42
