# Created with Anim8or 0.97d beta
# Object "object01":

mtllib FreightContainer.mtl

# Shape "cube01":
g cube01
# No. points 8:
v -35.5 0 -80
v -35.5 0 80
v -35.5 75 -80
v -35.5 75 80
v 35.5 0 -80
v 35.5 0 80
v 35.5 75 -80
v 35.5 75 80

# No. normals 30:
vn 0 0 -1
vn 0 0 1
vn -1 0 0
vn 1 0 0
vn 0 1 0
vn 0 -1 0
vn 0 0 -1
vn 0 -1 0
vn -1 0 0
vn 0 0 1
vn 0 -1 0
vn -1 0 0
vn 0 0 -1
vn 0 1 0
vn -1 0 0
vn 0 0 1
vn 0 1 0
vn -1 0 0
vn 0 0 -1
vn 0 -1 0
vn 1 0 0
vn 0 0 1
vn 0 -1 0
vn 1 0 0
vn 0 0 -1
vn 0 1 0
vn 1 0 0
vn 0 0 1
vn 0 1 0
vn 1 0 0

# No. texture coordinates 8:
vt 0 0
vt 0 0
vt 0 1
vt 0 1
vt 1 0
vt 1 0
vt 1 1
vt 1 1

# No. faces 6:

usemtl Main_Box

f 3/3/13 7/7/25 5/5/19 1/1/7
f 6/6/22 8/8/28 4/4/16 2/2/10
f 2/2/12 4/4/18 3/3/15 1/1/9
f 7/7/27 8/8/30 6/6/24 5/5/21
f 4/4/17 8/8/29 7/7/26 3/3/14
f 5/5/20 6/6/23 2/2/11 1/1/8

# Shape "cube02":
g cube02
# No. points 8:
v 34 -0.50000 -82.3
v 34 -0.50000 -78.3
v 34 75.5 -82.3
v 34 75.5 -78.3
v 38 -0.50000 -82.3
v 38 -0.50000 -78.3
v 38 75.5 -82.3
v 38 75.5 -78.3

# No. normals 30:
vn 0 0 -1
vn 0 0 1
vn -1 0 0
vn 1 0 0
vn 0 1 0
vn 0 -1 0
vn 0 0 -1
vn 0 -1 0
vn -1 0 0
vn 0 0 1
vn 0 -1 0
vn -1 0 0
vn 0 0 -1
vn 0 1 0
vn -1 0 0
vn 0 0 1
vn 0 1 0
vn -1 0 0
vn 0 0 -1
vn 0 -1 0
vn 1 0 0
vn 0 0 1
vn 0 -1 0
vn 1 0 0
vn 0 0 -1
vn 0 1 0
vn 1 0 0
vn 0 0 1
vn 0 1 0
vn 1 0 0

# No. texture coordinates 8:
vt 0 0
vt 0 0
vt 0 1
vt 0 1
vt 1 0
vt 1 0
vt 1 1
vt 1 1

# No. faces 6:

usemtl Corner

f 11/11/43 15/15/55 13/13/49 9/9/37
f 14/14/52 16/16/58 12/12/46 10/10/40
f 10/10/42 12/12/48 11/11/45 9/9/39
f 15/15/57 16/16/60 14/14/54 13/13/51
f 12/12/47 16/16/59 15/15/56 11/11/44
f 13/13/50 14/14/53 10/10/41 9/9/38

# Shape "cube03":
g cube03
# No. points 8:
v -38 -0.50000 -82.3
v -38 -0.50000 -78.3
v -38 75.5 -82.3
v -38 75.5 -78.3
v -34 -0.50000 -82.3
v -34 -0.50000 -78.3
v -34 75.5 -82.3
v -34 75.5 -78.3

# No. normals 30:
vn 0 0 -1
vn 0 0 1
vn -1 0 0
vn 1 0 0
vn 0 1 0
vn 0 -1 0
vn 0 0 -1
vn 0 -1 0
vn -1 0 0
vn 0 0 1
vn 0 -1 0
vn -1 0 0
vn 0 0 -1
vn 0 1 0
vn -1 0 0
vn 0 0 1
vn 0 1 0
vn -1 0 0
vn 0 0 -1
vn 0 -1 0
vn 1 0 0
vn 0 0 1
vn 0 -1 0
vn 1 0 0
vn 0 0 -1
vn 0 1 0
vn 1 0 0
vn 0 0 1
vn 0 1 0
vn 1 0 0

# No. texture coordinates 8:
vt 0 0
vt 0 0
vt 0 1
vt 0 1
vt 1 0
vt 1 0
vt 1 1
vt 1 1

# No. faces 6:

usemtl Corner

f 19/19/73 23/23/85 21/21/79 17/17/67
f 22/22/82 24/24/88 20/20/76 18/18/70
f 18/18/72 20/20/78 19/19/75 17/17/69
f 23/23/87 24/24/90 22/22/84 21/21/81
f 20/20/77 24/24/89 23/23/86 19/19/74
f 21/21/80 22/22/83 18/18/71 17/17/68

# Shape "cube04":
g cube04
# No. points 8:
v 34 -0.50000 78.3
v 34 -0.50000 82.3
v 34 75.5 78.3
v 34 75.5 82.3
v 38 -0.50000 78.3
v 38 -0.50000 82.3
v 38 75.5 78.3
v 38 75.5 82.3

# No. normals 30:
vn 0 0 -1
vn 0 0 1
vn -1 0 0
vn 1 0 0
vn 0 1 0
vn 0 -1 0
vn 0 0 -1
vn 0 -1 0
vn -1 0 0
vn 0 0 1
vn 0 -1 0
vn -1 0 0
vn 0 0 -1
vn 0 1 0
vn -1 0 0
vn 0 0 1
vn 0 1 0
vn -1 0 0
vn 0 0 -1
vn 0 -1 0
vn 1 0 0
vn 0 0 1
vn 0 -1 0
vn 1 0 0
vn 0 0 -1
vn 0 1 0
vn 1 0 0
vn 0 0 1
vn 0 1 0
vn 1 0 0

# No. texture coordinates 8:
vt 0 0
vt 0 0
vt 0 1
vt 0 1
vt 1 0
vt 1 0
vt 1 1
vt 1 1

# No. faces 6:

usemtl Corner

f 27/27/103 31/31/115 29/29/109 25/25/97
f 30/30/112 32/32/118 28/28/106 26/26/100
f 26/26/102 28/28/108 27/27/105 25/25/99
f 31/31/117 32/32/120 30/30/114 29/29/111
f 28/28/107 32/32/119 31/31/116 27/27/104
f 29/29/110 30/30/113 26/26/101 25/25/98

# Shape "cube05":
g cube05
# No. points 8:
v -38 -0.50000 78.3
v -38 -0.50000 82.3
v -38 75.5 78.3
v -38 75.5 82.3
v -34 -0.50000 78.3
v -34 -0.50000 82.3
v -34 75.5 78.3
v -34 75.5 82.3

# No. normals 30:
vn 0 0 -1
vn 0 0 1
vn -1 0 0
vn 1 0 0
vn 0 1 0
vn 0 -1 0
vn 0 0 -1
vn 0 -1 0
vn -1 0 0
vn 0 0 1
vn 0 -1 0
vn -1 0 0
vn 0 0 -1
vn 0 1 0
vn -1 0 0
vn 0 0 1
vn 0 1 0
vn -1 0 0
vn 0 0 -1
vn 0 -1 0
vn 1 0 0
vn 0 0 1
vn 0 -1 0
vn 1 0 0
vn 0 0 -1
vn 0 1 0
vn 1 0 0
vn 0 0 1
vn 0 1 0
vn 1 0 0

# No. texture coordinates 8:
vt 0 0
vt 0 0
vt 0 1
vt 0 1
vt 1 0
vt 1 0
vt 1 1
vt 1 1

# No. faces 6:

usemtl Corner

f 35/35/133 39/39/145 37/37/139 33/33/127
f 38/38/142 40/40/148 36/36/136 34/34/130
f 34/34/132 36/36/138 35/35/135 33/33/129
f 39/39/147 40/40/150 38/38/144 37/37/141
f 36/36/137 40/40/149 39/39/146 35/35/134
f 37/37/140 38/38/143 34/34/131 33/33/128

# Shape "cube06":
g cube06
# No. points 8:
v -38 -0.50000 -82
v -38 -0.50000 82
v -38 0.50000 -82
v -38 0.50000 82
v 38 -0.50000 -82
v 38 -0.50000 82
v 38 0.50000 -82
v 38 0.50000 82

# No. normals 30:
vn 0 0 -1
vn 0 0 1
vn -1 0 0
vn 1 0 0
vn 0 1 0
vn 0 -1 0
vn 0 0 -1
vn 0 -1 0
vn -1 0 0
vn 0 0 1
vn 0 -1 0
vn -1 0 0
vn 0 0 -1
vn 0 1 0
vn -1 0 0
vn 0 0 1
vn 0 1 0
vn -1 0 0
vn 0 0 -1
vn 0 -1 0
vn 1 0 0
vn 0 0 1
vn 0 -1 0
vn 1 0 0
vn 0 0 -1
vn 0 1 0
vn 1 0 0
vn 0 0 1
vn 0 1 0
vn 1 0 0

# No. texture coordinates 8:
vt 0 0
vt 0 0
vt 0 1
vt 0 1
vt 1 0
vt 1 0
vt 1 1
vt 1 1

# No. faces 6:

usemtl Roof_Floor

f 43/43/163 47/47/175 45/45/169 41/41/157
f 46/46/172 48/48/178 44/44/166 42/42/160
f 42/42/162 44/44/168 43/43/165 41/41/159
f 47/47/177 48/48/180 46/46/174 45/45/171
f 44/44/167 48/48/179 47/47/176 43/43/164
f 45/45/170 46/46/173 42/42/161 41/41/158

# Shape "cube07":
g cube07
# No. points 8:
v -38 74.5 -82
v -38 74.5 82
v -38 75.5 -82
v -38 75.5 82
v 38 74.5 -82
v 38 74.5 82
v 38 75.5 -82
v 38 75.5 82

# No. normals 30:
vn 0 0 -1
vn 0 0 1
vn -1 0 0
vn 1 0 0
vn 0 1 0
vn 0 -1 0
vn 0 0 -1
vn 0 -1 0
vn -1 0 0
vn 0 0 1
vn 0 -1 0
vn -1 0 0
vn 0 0 -1
vn 0 1 0
vn -1 0 0
vn 0 0 1
vn 0 1 0
vn -1 0 0
vn 0 0 -1
vn 0 -1 0
vn 1 0 0
vn 0 0 1
vn 0 -1 0
vn 1 0 0
vn 0 0 -1
vn 0 1 0
vn 1 0 0
vn 0 0 1
vn 0 1 0
vn 1 0 0

# No. texture coordinates 8:
vt 0 0
vt 0 0
vt 0 1
vt 0 1
vt 1 0
vt 1 0
vt 1 1
vt 1 1

# No. faces 6:

usemtl Roof_Floor

f 51/51/193 55/55/205 53/53/199 49/49/187
f 54/54/202 56/56/208 52/52/196 50/50/190
f 50/50/192 52/52/198 51/51/195 49/49/189
f 55/55/207 56/56/210 54/54/204 53/53/201
f 52/52/197 56/56/209 55/55/206 51/51/194
f 53/53/200 54/54/203 50/50/191 49/49/188

# Shape "cylinder01":
g cylinder01
# No. points 20:
v -22.5 75.5 81
v -22.5 -0.50000 81
v -22.4045 75.5 80.7061
v -22.4045 -0.50000 80.7061
v -22.1545 75.5 80.5245
v -22.1545 -0.50000 80.5245
v -21.8455 75.5 80.5245
v -21.8455 -0.50000 80.5245
v -21.5955 75.5 80.7061
v -21.5955 -0.50000 80.7061
v -21.5 75.5 81
v -21.5 -0.50000 81
v -21.5955 75.5 81.2939
v -21.5955 -0.50000 81.2939
v -21.8455 75.5 81.4755
v -21.8455 -0.50000 81.4755
v -22.1545 75.5 81.4755
v -22.1545 -0.50000 81.4755
v -22.4045 75.5 81.2939
v -22.4045 -0.50000 81.2939

# No. normals 52:
vn -0.95106 0 -0.30902
vn -0.58779 0 -0.80902
vn 0 0 -1
vn 0.58779 0 -0.80902
vn 0.95106 0 -0.30902
vn 0.95106 0 0.30902
vn 0.58779 0 0.80902
vn 0 0 1
vn -0.58779 0 0.80902
vn -0.95106 0 0.30902
vn 0 -1 0
vn 0 1 0
vn -1 0 0
vn 0 1 0
vn -1 0 0
vn 0 -1 0
vn -0.80902 0 -0.58779
vn 0 1 0
vn -0.80902 0 -0.58779
vn 0 -1 0
vn -0.30902 0 -0.95106
vn 0 1 0
vn -0.30902 0 -0.95106
vn 0 -1 0
vn 0.30902 0 -0.95106
vn 0 1 0
vn 0.30902 0 -0.95106
vn 0 -1 0
vn 0.80902 0 -0.58779
vn 0 1 0
vn 0.80902 0 -0.58779
vn 0 -1 0
vn 1 0 0
vn 0 1 0
vn 1 0 0
vn 0 -1 0
vn 0.80902 0 0.58779
vn 0 1 0
vn 0.80902 0 0.58779
vn 0 -1 0
vn 0.30902 0 0.95106
vn 0 1 0
vn 0.30902 0 0.95106
vn 0 -1 0
vn -0.30902 0 0.95106
vn 0 1 0
vn -0.30902 0 0.95106
vn 0 -1 0
vn -0.80902 0 0.58779
vn 0 1 0
vn -0.80902 0 0.58779
vn 0 -1 0

# No. texture coordinates 22:
vt 0 0
vt 0 1
vt 0.10000 0
vt 0.10000 1
vt 0.20000 0
vt 0.20000 1
vt 0.30000 0
vt 0.30000 1
vt 0.40000 0
vt 0.40000 1
vt 0.50000 0
vt 0.50000 1
vt 0.60000 0
vt 0.60000 1
vt 0.70000 0
vt 0.70000 1
vt 0.80000 0
vt 0.80000 1
vt 0.90000 0
vt 0.90000 1
vt 1 0
vt 1 1

# No. faces 12:

usemtl DoorBars

f 60/60/229 58/58/225 57/57/223 59/59/227
f 62/62/233 60/60/229 59/59/227 61/61/231
f 64/64/237 62/62/233 61/61/231 63/63/235
f 66/66/241 64/64/237 63/63/235 65/65/239
f 68/68/245 66/66/241 65/65/239 67/67/243
f 70/70/249 68/68/245 67/67/243 69/69/247
f 72/72/253 70/70/249 69/69/247 71/71/251
f 74/74/257 72/72/253 71/71/251 73/73/255
f 76/76/261 74/74/257 73/73/255 75/75/259
f 58/78/225 76/76/261 75/75/259 57/77/223
f 58/58/226 60/60/230 62/62/234 64/64/238 66/66/242 68/68/246 70/70/250 72/72/254 74/74/258 76/76/262
f 75/75/260 73/73/256 71/71/252 69/69/248 67/67/244 65/65/240 63/63/236 61/61/232 59/59/228 57/57/224

# Shape "cylinder02":
g cylinder02
# No. points 20:
v 21.5 75.5 81
v 21.5 -0.50000 81
v 21.5955 75.5 80.7061
v 21.5955 -0.50000 80.7061
v 21.8455 75.5 80.5245
v 21.8455 -0.50000 80.5245
v 22.1545 75.5 80.5245
v 22.1545 -0.50000 80.5245
v 22.4045 75.5 80.7061
v 22.4045 -0.50000 80.7061
v 22.5 75.5 81
v 22.5 -0.50000 81
v 22.4045 75.5 81.2939
v 22.4045 -0.50000 81.2939
v 22.1545 75.5 81.4755
v 22.1545 -0.50000 81.4755
v 21.8455 75.5 81.4755
v 21.8455 -0.50000 81.4755
v 21.5955 75.5 81.2939
v 21.5955 -0.50000 81.2939

# No. normals 52:
vn -0.95106 0 -0.30902
vn -0.58779 0 -0.80902
vn 0 0 -1
vn 0.58779 0 -0.80902
vn 0.95106 0 -0.30902
vn 0.95106 0 0.30902
vn 0.58779 0 0.80902
vn 0 0 1
vn -0.58779 0 0.80902
vn -0.95106 0 0.30902
vn 0 -1 0
vn 0 1 0
vn -1 0 0
vn 0 1 0
vn -1 0 0
vn 0 -1 0
vn -0.80902 0 -0.58779
vn 0 1 0
vn -0.80902 0 -0.58779
vn 0 -1 0
vn -0.30902 0 -0.95106
vn 0 1 0
vn -0.30902 0 -0.95106
vn 0 -1 0
vn 0.30902 0 -0.95106
vn 0 1 0
vn 0.30902 0 -0.95106
vn 0 -1 0
vn 0.80902 0 -0.58779
vn 0 1 0
vn 0.80902 0 -0.58779
vn 0 -1 0
vn 1 0 0
vn 0 1 0
vn 1 0 0
vn 0 -1 0
vn 0.80902 0 0.58779
vn 0 1 0
vn 0.80902 0 0.58779
vn 0 -1 0
vn 0.30902 0 0.95106
vn 0 1 0
vn 0.30902 0 0.95106
vn 0 -1 0
vn -0.30902 0 0.95106
vn 0 1 0
vn -0.30902 0 0.95106
vn 0 -1 0
vn -0.80902 0 0.58779
vn 0 1 0
vn -0.80902 0 0.58779
vn 0 -1 0

# No. texture coordinates 22:
vt 0 0
vt 0 1
vt 0.10000 0
vt 0.10000 1
vt 0.20000 0
vt 0.20000 1
vt 0.30000 0
vt 0.30000 1
vt 0.40000 0
vt 0.40000 1
vt 0.50000 0
vt 0.50000 1
vt 0.60000 0
vt 0.60000 1
vt 0.70000 0
vt 0.70000 1
vt 0.80000 0
vt 0.80000 1
vt 0.90000 0
vt 0.90000 1
vt 1 0
vt 1 1

# No. faces 12:

usemtl DoorBars

f 80/82/281 78/80/277 77/79/275 79/81/279
f 82/84/285 80/82/281 79/81/279 81/83/283
f 84/86/289 82/84/285 81/83/283 83/85/287
f 86/88/293 84/86/289 83/85/287 85/87/291
f 88/90/297 86/88/293 85/87/291 87/89/295
f 90/92/301 88/90/297 87/89/295 89/91/299
f 92/94/305 90/92/301 89/91/299 91/93/303
f 94/96/309 92/94/305 91/93/303 93/95/307
f 96/98/313 94/96/309 93/95/307 95/97/311
f 78/100/277 96/98/313 95/97/311 77/99/275
f 78/80/278 80/82/282 82/84/286 84/86/290 86/88/294 88/90/298 90/92/302 92/94/306 94/96/310 96/98/314
f 95/97/312 93/95/308 91/93/304 89/91/300 87/89/296 85/87/292 83/85/288 81/83/284 79/81/280 77/79/276

# Shape "cylinder03":
g cylinder03
# No. points 20:
v 7 75.5 81
v 7 -0.50000 81
v 7.09549 75.5 80.7061
v 7.09549 -0.50000 80.7061
v 7.34549 75.5 80.5245
v 7.34549 -0.50000 80.5245
v 7.65451 75.5 80.5245
v 7.65451 -0.50000 80.5245
v 7.90451 75.5 80.7061
v 7.90451 -0.50000 80.7061
v 8 75.5 81
v 8 -0.50000 81
v 7.90451 75.5 81.2939
v 7.90451 -0.50000 81.2939
v 7.65451 75.5 81.4755
v 7.65451 -0.50000 81.4755
v 7.34549 75.5 81.4755
v 7.34549 -0.50000 81.4755
v 7.09549 75.5 81.2939
v 7.09549 -0.50000 81.2939

# No. normals 52:
vn -0.95106 0 -0.30902
vn -0.58779 0 -0.80902
vn 0 0 -1
vn 0.58779 0 -0.80902
vn 0.95106 0 -0.30902
vn 0.95106 0 0.30902
vn 0.58779 0 0.80902
vn 0 0 1
vn -0.58779 0 0.80902
vn -0.95106 0 0.30902
vn 0 -1 0
vn 0 1 0
vn -1 0 0
vn 0 1 0
vn -1 0 0
vn 0 -1 0
vn -0.80902 0 -0.58779
vn 0 1 0
vn -0.80902 0 -0.58779
vn 0 -1 0
vn -0.30902 0 -0.95106
vn 0 1 0
vn -0.30902 0 -0.95106
vn 0 -1 0
vn 0.30902 0 -0.95106
vn 0 1 0
vn 0.30902 0 -0.95106
vn 0 -1 0
vn 0.80902 0 -0.58779
vn 0 1 0
vn 0.80902 0 -0.58779
vn 0 -1 0
vn 1 0 0
vn 0 1 0
vn 1 0 0
vn 0 -1 0
vn 0.80902 0 0.58779
vn 0 1 0
vn 0.80902 0 0.58779
vn 0 -1 0
vn 0.30902 0 0.95106
vn 0 1 0
vn 0.30902 0 0.95106
vn 0 -1 0
vn -0.30902 0 0.95106
vn 0 1 0
vn -0.30902 0 0.95106
vn 0 -1 0
vn -0.80902 0 0.58779
vn 0 1 0
vn -0.80902 0 0.58779
vn 0 -1 0

# No. texture coordinates 22:
vt 0 0
vt 0 1
vt 0.10000 0
vt 0.10000 1
vt 0.20000 0
vt 0.20000 1
vt 0.30000 0
vt 0.30000 1
vt 0.40000 0
vt 0.40000 1
vt 0.50000 0
vt 0.50000 1
vt 0.60000 0
vt 0.60000 1
vt 0.70000 0
vt 0.70000 1
vt 0.80000 0
vt 0.80000 1
vt 0.90000 0
vt 0.90000 1
vt 1 0
vt 1 1

# No. faces 12:

usemtl DoorBars

f 100/104/333 98/102/329 97/101/327 99/103/331
f 102/106/337 100/104/333 99/103/331 101/105/335
f 104/108/341 102/106/337 101/105/335 103/107/339
f 106/110/345 104/108/341 103/107/339 105/109/343
f 108/112/349 106/110/345 105/109/343 107/111/347
f 110/114/353 108/112/349 107/111/347 109/113/351
f 112/116/357 110/114/353 109/113/351 111/115/355
f 114/118/361 112/116/357 111/115/355 113/117/359
f 116/120/365 114/118/361 113/117/359 115/119/363
f 98/122/329 116/120/365 115/119/363 97/121/327
f 98/102/330 100/104/334 102/106/338 104/108/342 106/110/346 108/112/350 110/114/354 112/116/358 114/118/362 116/120/366
f 115/119/364 113/117/360 111/115/356 109/113/352 107/111/348 105/109/344 103/107/340 101/105/336 99/103/332 97/101/328

# Shape "cylinder04":
g cylinder04
# No. points 20:
v -8 75.5 81
v -8 -0.50000 81
v -7.90451 75.5 80.7061
v -7.90451 -0.50000 80.7061
v -7.65451 75.5 80.5245
v -7.65451 -0.50000 80.5245
v -7.34549 75.5 80.5245
v -7.34549 -0.50000 80.5245
v -7.09549 75.5 80.7061
v -7.09549 -0.50000 80.7061
v -7 75.5 81
v -7 -0.50000 81
v -7.09549 75.5 81.2939
v -7.09549 -0.50000 81.2939
v -7.34549 75.5 81.4755
v -7.34549 -0.50000 81.4755
v -7.65451 75.5 81.4755
v -7.65451 -0.50000 81.4755
v -7.90451 75.5 81.2939
v -7.90451 -0.50000 81.2939

# No. normals 52:
vn -0.95106 0 -0.30902
vn -0.58779 0 -0.80902
vn 0 0 -1
vn 0.58779 0 -0.80902
vn 0.95106 0 -0.30902
vn 0.95106 0 0.30902
vn 0.58779 0 0.80902
vn 0 0 1
vn -0.58779 0 0.80902
vn -0.95106 0 0.30902
vn 0 -1 0
vn 0 1 0
vn -1 0 0
vn 0 1 0
vn -1 0 0
vn 0 -1 0
vn -0.80902 0 -0.58779
vn 0 1 0
vn -0.80902 0 -0.58779
vn 0 -1 0
vn -0.30902 0 -0.95106
vn 0 1 0
vn -0.30902 0 -0.95106
vn 0 -1 0
vn 0.30902 0 -0.95106
vn 0 1 0
vn 0.30902 0 -0.95106
vn 0 -1 0
vn 0.80902 0 -0.58779
vn 0 1 0
vn 0.80902 0 -0.58779
vn 0 -1 0
vn 1 0 0
vn 0 1 0
vn 1 0 0
vn 0 -1 0
vn 0.80902 0 0.58779
vn 0 1 0
vn 0.80902 0 0.58779
vn 0 -1 0
vn 0.30902 0 0.95106
vn 0 1 0
vn 0.30902 0 0.95106
vn 0 -1 0
vn -0.30902 0 0.95106
vn 0 1 0
vn -0.30902 0 0.95106
vn 0 -1 0
vn -0.80902 0 0.58779
vn 0 1 0
vn -0.80902 0 0.58779
vn 0 -1 0

# No. texture coordinates 22:
vt 0 0
vt 0 1
vt 0.10000 0
vt 0.10000 1
vt 0.20000 0
vt 0.20000 1
vt 0.30000 0
vt 0.30000 1
vt 0.40000 0
vt 0.40000 1
vt 0.50000 0
vt 0.50000 1
vt 0.60000 0
vt 0.60000 1
vt 0.70000 0
vt 0.70000 1
vt 0.80000 0
vt 0.80000 1
vt 0.90000 0
vt 0.90000 1
vt 1 0
vt 1 1

# No. faces 12:

usemtl DoorBars

f 120/126/385 118/124/381 117/123/379 119/125/383
f 122/128/389 120/126/385 119/125/383 121/127/387
f 124/130/393 122/128/389 121/127/387 123/129/391
f 126/132/397 124/130/393 123/129/391 125/131/395
f 128/134/401 126/132/397 125/131/395 127/133/399
f 130/136/405 128/134/401 127/133/399 129/135/403
f 132/138/409 130/136/405 129/135/403 131/137/407
f 134/140/413 132/138/409 131/137/407 133/139/411
f 136/142/417 134/140/413 133/139/411 135/141/415
f 118/144/381 136/142/417 135/141/415 117/143/379
f 118/124/382 120/126/386 122/128/390 124/130/394 126/132/398 128/134/402 130/136/406 132/138/410 134/140/414 136/142/418
f 135/141/416 133/139/412 131/137/408 129/135/404 127/133/400 125/131/396 123/129/392 121/127/388 119/125/384 117/123/380

# Shape "cube08":
g cube08
# No. points 8:
v -1.5 38 79.5
v -1.5 38 82.5
v -1.5 42 79.5
v -1.5 42 82.5
v 1.5 38 79.5
v 1.5 38 82.5
v 1.5 42 79.5
v 1.5 42 82.5

# No. normals 30:
vn 0 0 -1
vn 0 0 1
vn -1 0 0
vn 1 0 0
vn 0 1 0
vn 0 -1 0
vn 0 0 -1
vn 0 -1 0
vn -1 0 0
vn 0 0 1
vn 0 -1 0
vn -1 0 0
vn 0 0 -1
vn 0 1 0
vn -1 0 0
vn 0 0 1
vn 0 1 0
vn -1 0 0
vn 0 0 -1
vn 0 -1 0
vn 1 0 0
vn 0 0 1
vn 0 -1 0
vn 1 0 0
vn 0 0 -1
vn 0 1 0
vn 1 0 0
vn 0 0 1
vn 0 1 0
vn 1 0 0

# No. texture coordinates 8:
vt 0 0
vt 0 0
vt 0 1
vt 0 1
vt 1 0
vt 1 0
vt 1 1
vt 1 1

# No. faces 6:

usemtl Lock

f 139/147/431 143/151/443 141/149/437 137/145/425
f 142/150/440 144/152/446 140/148/434 138/146/428
f 138/146/430 140/148/436 139/147/433 137/145/427
f 143/151/445 144/152/448 142/150/442 141/149/439
f 140/148/435 144/152/447 143/151/444 139/147/432
f 141/149/438 142/150/441 138/146/429 137/145/426

# End of Object "object01"
